#!OML:ASF E:\Steps\Project 1\Capture day 1\Session 2\Subject.ASF
:FULLY-SPECIFIED
:DEGREES
270
root 10.1095 16.2862 17.9874 188.545 85.441 164.181
lowerback -25.3384 -1.00381 -5.43016
upperback -3.13966 0.678563 -1.45879
thorax 10.5992 0.264259 1.73993
lowerneck 0.215957 -0.339198 -3.4847
upperneck 8.70641 -0.717893 6.82813
head 2.81702 -0.19948 2.84665
rclavicle -9.54166e-015 4.77083e-015
rhumerus -35.788 -34.3369 -71.3561
rradius 16.3687
rwrist 21.7331
rhand -15.6612 -55.9639
rfingers 7.12502
rthumb 10.527 -85.6803
lclavicle -9.54166e-015 4.77083e-015
lhumerus -28.8659 4.96641 84.3235
lradius 14.9971
lwrist -10.6526
lhand -29.0149 -15.9872
lfingers 7.12502
lthumb -2.36611 13.9794
rfemur -28.6598 11.8072 15.5925
rtibia 18.8223
rfoot -22.8187 -8.83292
rtoes -37.8434
lfemur -29.4728 -15.2229 -13.0504
ltibia 21.6241
lfoot -13.0219 6.40661
ltoes -34.7616
271
root 10.1237 16.2989 17.9664 186.134 85.6189 161.564
lowerback -25.774 -1.02314 -5.38913
upperback -3.22356 0.692626 -1.53854
thorax 10.7349 0.277829 1.63483
lowerneck 0.197571 -0.34876 -3.37681
upperneck 8.705 -0.731397 6.80289
head 2.81912 -0.203182 2.81759
rclavicle -7.70291e-015 -1.82882e-014
rhumerus -36.2488 -34.8768 -70.876
rradius 16.2501
rwrist 22.1412
rhand -15.675 -56.1473
rfingers 7.12502
rthumb 10.5137 -85.8644
lclavicle -7.70291e-015 -1.82882e-014
lhumerus -28.9482 4.98708 84.181
lradius 14.9743
lwrist -10.8064
lhand -28.6726 -16.152
lfingers 7.12502
lthumb -2.03548 13.8181
rfemur -28.3211 11.5762 15.3048
rtibia 17.7867
rfoot -22.4218 -8.47823
rtoes -37.8027
lfemur -29.1039 -15.2813 -13.2968
ltibia 20.6987
lfoot -12.9099 6.4658
ltoes -32.5895
272
root 10.1361 16.31 17.9478 185.305 85.832 160.557
lowerback -26.1558 -1.01053 -5.2498
upperback -3.29703 0.705109 -1.54915
thorax 10.8532 0.291995 1.54999
lowerneck 0.185624 -0.360602 -3.27975
upperneck 8.70452 -0.748139 6.78256
head 2.82071 -0.208759 2.79218
rclavicle -1.98785e-015 -1.59028e-015
rhumerus -36.5499 -34.8437 -70.7587
rradius 16.3038
rwrist 21.9994
rhand -15.6915 -56.4685
rfingers 7.12502
rthumb 10.4977 -86.1864
lclavicle -1.98785e-015 -1.59028e-015
lhumerus -29.0281 4.62347 84.2345
lradius 15.0208
lwrist -10.4243
lhand -28.4514 -16.058
lfingers 7.12502
lthumb -1.82187 13.914
rfemur -27.956 11.5279 15.162
rtibia 16.741
rfoot -22.0079 -8.13541
rtoes -37.9118
lfemur -28.739 -14.9775 -13.4724
ltibia 19.8275
lfoot -12.703 6.55566
ltoes -32.3083
273
root 10.1371 16.3263 17.9382 184.527 85.9244 159.65
lowerback -26.283 -1.07756 -5.27538
upperback -3.38175 0.628539 -1.47946
thorax 10.8266 0.258402 1.61784
lowerneck 0.17423 -0.348624 -3.25666
upperneck 8.71305 -0.731615 6.75856
head 2.82413 -0.200425 2.7802
rclavicle 1.08835e-014 1.98785e-014
rhumerus -36.905 -35.2176 -70.2996
rradius 16.2816
rwrist 22.2498
rhand -15.9456 -56.3369
rfingers 7.12502
rthumb 10.2527 -86.0671
lclavicle 1.08835e-014 1.98785e-014
lhumerus -29.1004 4.31061 84.324
lradius 15.0913
lwrist -10.1012
lhand -28.2555 -15.58
lfingers 7.12502
lthumb -1.63269 14.3935
rfemur -27.6472 11.6277 14.9705
rtibia 15.8071
rfoot -21.5303 -8.2032
rtoes -38.6218
lfemur -28.4292 -14.098 -13.7225
ltibia 18.9457
lfoot -12.0916 6.29723
ltoes -34.8083
274
root 10.1406 16.3384 17.9271 183.467 85.9784 158.402
lowerback -26.5188 -1.11502 -5.26428
upperback -3.47024 0.595993 -1.45406
thorax 10.851 0.247945 1.63061
lowerneck 0.15553 -0.340574 -3.29994
upperneck 8.71682 -0.720789 6.76457
head 2.82883 -0.196232 2.79079
rclavicle 1.18774e-014 6.36111e-015
rhumerus -37.3236 -35.6497 -69.7865
rradius 16.3322
rwrist 22.4479
rhand -15.9945 -56.2202
rfingers 7.12502
rthumb 10.2055 -85.9526
lclavicle 1.18774e-014 6.36111e-015
lhumerus -29.0901 5.12196 83.9306
lradius 14.9733
lwrist -11.1605
lhand -27.3971 -15.6343
lfingers 7.12502
lthumb -0.803618 14.344
rfemur -27.4101 11.4181 14.7785
rtibia 14.9014
rfoot -20.9959 -7.98033
rtoes -38.9343
lfemur -28.1679 -13.5255 -13.929
ltibia 17.9963
lfoot -11.4163 6.17245
ltoes -37.3976
275
root 10.1479 16.3478 17.9171 182.52 86.1809 157.337
lowerback -26.7485 -1.03612 -5.20263
upperback -3.54034 0.704665 -1.47512
thorax 10.885 0.305111 1.61138
lowerneck 0.128905 -0.36332 -3.32586
upperneck 8.71706 -0.752472 6.78977
head 2.8364 -0.211741 2.80383
rclavicle -1.38155e-014 5.56597e-015
rhumerus -37.6314 -35.632 -69.655
rradius 16.5048
rwrist 21.9735
rhand -15.8464 -56.4342
rfingers 7.12502
rthumb 10.3483 -86.1596
lclavicle -1.38155e-014 5.56597e-015
lhumerus -29.1347 5.56663 83.6767
lradius 14.9419
lwrist -11.9246
lhand -26.8134 -15.717
lfingers 7.12502
lthumb -0.239866 14.2626
rfemur -27.1125 11.1118 14.7926
rtibia 14.063
rfoot -20.6126 -7.34844
rtoes -40.1394
lfemur -27.7455 -12.9941 -14.1067
ltibia 17.0452
lfoot -10.9579 6.03375
ltoes -38.7942
276
root 10.1545 16.3539 17.9014 180.866 86.3432 155.539
lowerback -26.9885 -0.98946 -5.21027
upperback -3.62241 0.790692 -1.47869
thorax 10.9108 0.349396 1.64428
lowerneck 0.133474 -0.388982 -3.29655
upperneck 8.7224 -0.78752 6.78867
head 2.83907 -0.228022 2.79727
rclavicle -7.05686e-015 1.78906e-014
rhumerus -37.9417 -35.5833 -69.4703
rradius 16.6224
rwrist 21.4481
rhand -15.7225 -56.3492
rfingers 7.12502
rthumb 10.4678 -86.0686
lclavicle -7.05686e-015 1.78906e-014
lhumerus -29.2504 4.8213 83.9792
lradius 15.1313
lwrist -11.3085
lhand -26.8223 -15.6296
lfingers 7.12502
lthumb -0.248468 14.35
rfemur -26.8622 11.0516 14.6313
rtibia 13.2769
rfoot -20.4449 -7.0503
rtoes -40.8069
lfemur -27.3886 -12.9679 -14.2505
ltibia 16.1544
lfoot -10.7205 6.29148
ltoes -39.7599
277
root 10.1592 16.3587 17.8855 180.293 86.4463 154.815
lowerback -27.1828 -1.03108 -5.2221
upperback -3.73404 0.747395 -1.38774
thorax 10.8848 0.333193 1.74053
lowerneck 0.193283 -0.384289 -3.25068
upperneck 8.72556 -0.780348 6.75608
head 2.82759 -0.224539 2.77723
rclavicle 1.38652e-014 -3.02153e-014
rhumerus -38.2798 -35.4855 -69.1825
rradius 16.7026
rwrist 21.2886
rhand -15.5291 -55.9358
rfingers 7.12502
rthumb 10.6544 -85.6457
lclavicle 1.38652e-014 -3.02153e-014
lhumerus -29.4598 3.97524 84.3847
lradius 15.4536
lwrist -10.5047
lhand -26.6585 -15.7557
lfingers 7.12502
lthumb -0.0902658 14.224
rfemur -26.634 11.0183 14.5046
rtibia 12.5021
rfoot -20.1027 -6.99861
rtoes -39.2533
lfemur -27.1242 -13.2478 -14.2382
ltibia 15.3903
lfoot -10.5883 6.65602
ltoes -39.7545
278
root 10.1627 16.3624 17.8751 181.75 86.5473 156.218
lowerback -27.2613 -1.03341 -5.0502
upperback -3.80873 0.692412 -1.31886
thorax 10.8443 0.317148 1.70096
lowerneck 0.227514 -0.381066 -3.2353
upperneck 8.72346 -0.776114 6.74832
head 2.81997 -0.222664 2.77148
rclavicle 2.11706e-014 3.57812e-015
rhumerus -38.5465 -35.5355 -68.9824
rradius 16.74
rwrist 21.3682
rhand -15.2867 -55.7698
rfingers 7.12502
rthumb 10.8882 -85.4675
lclavicle 2.11706e-014 3.57812e-015
lhumerus -29.6423 2.97113 84.754
lradius 15.8148
lwrist -9.50079
lhand -26.2609 -15.5694
lfingers 7.12502
lthumb 0.293733 14.4101
rfemur -26.3414 10.7685 14.6313
rtibia 11.793
rfoot -19.7421 -6.74185
rtoes -37.98
lfemur -26.7769 -13.3538 -14.0992
ltibia 14.6878
lfoot -10.4015 6.82289
ltoes -38.8403
279
root 10.1648 16.3641 17.8689 182.842 86.6836 157.322
lowerback -27.2832 -0.97772 -4.88224
upperback -3.83729 0.713329 -1.29328
thorax 10.8231 0.334219 1.64103
lowerneck 0.225656 -0.399352 -3.24683
upperneck 8.72304 -0.802181 6.77293
head 2.8222 -0.235227 2.78154
rclavicle 1.85864e-014 3.97569e-015
rhumerus -38.771 -35.8117 -68.7524
rradius 16.7373
rwrist 21.5477
rhand -14.9835 -55.8114
rfingers 7.12502
rthumb 11.1807 -85.4935
lclavicle 1.85864e-014 3.97569e-015
lhumerus -29.6785 2.08379 85.0304
lradius 16.0457
lwrist -8.57906
lhand -26.1887 -14.9283
lfingers 7.12502
lthumb 0.363531 15.0511
rfemur -26.0363 10.6894 14.7508
rtibia 11.173
rfoot -19.5292 -6.41655
rtoes -37.6001
lfemur -26.3719 -12.4934 -14.2018
ltibia 14.0116
lfoot -10.0999 6.27252
ltoes -39.3941
280
root 10.1641 16.365 17.8617 182.481 86.7743 156.89
lowerback -27.3439 -0.962571 -4.87492
upperback -3.89951 0.730421 -1.24059
thorax 10.7814 0.345128 1.7032
lowerneck 0.277714 -0.427688 -3.25225
upperneck 8.72469 -0.841646 6.79629
head 2.81584 -0.254683 2.78938
rclavicle 6.01324e-015 -3.85642e-014
rhumerus -38.9942 -35.9662 -68.4855
rradius 16.7686
rwrist 21.6327
rhand -14.9332 -55.8129
rfingers 7.12502
rthumb 11.2292 -85.4924
lclavicle 6.01324e-015 -3.85642e-014
lhumerus -29.652 1.9668 85.0688
lradius 16.1031
lwrist -8.52838
lhand -25.9691 -14.9209
lfingers 7.12502
lthumb 0.575581 15.0581
rfemur -25.8521 10.8265 14.6566
rtibia 10.601
rfoot -19.3103 -6.34015
rtoes -37.2174
lfemur -26.1314 -13.4488 -13.9957
ltibia 13.4278
lfoot -10.1843 7.39343
ltoes -39.8542
281
root 10.1621 16.3659 17.8511 180.876 86.8248 155.175
lowerback -27.4266 -0.939968 -4.84971
upperback -3.96323 0.764268 -1.26305
thorax 10.7498 0.366746 1.67637
lowerneck 0.320424 -0.461719 -3.25765
upperneck 8.72123 -0.88917 6.82859
head 2.81012 -0.277854 2.80012
rclavicle -8.54774e-015 -2.38542e-015
rhumerus -39.1853 -36.028 -68.3816
rradius 16.8353
rwrist 21.4852
rhand -15.3236 -55.7254
rfingers 7.12502
rthumb 10.8526 -85.425
lclavicle -8.54774e-015 -2.38542e-015
lhumerus -29.578 1.98315 84.9965
lradius 16.112
lwrist -8.65265
lhand -25.3829 -15.339
lfingers 7.12502
lthumb 1.14172 14.6377
rfemur -25.7772 10.9532 14.4267
rtibia 10.1524
rfoot -19.1219 -6.40389
rtoes -37.11
lfemur -25.8593 -11.2727 -14.6029
ltibia 12.7161
lfoot -9.81733 5.43064
ltoes -40.21
282
root 10.1603 16.3654 17.838 179.804 86.8969 154.034
lowerback -27.5406 -0.899704 -4.70498
upperback -3.96755 0.791049 -1.32664
thorax 10.8053 0.385911 1.5318
lowerneck 0.286786 -0.469468 -3.26787
upperneck 8.7166 -0.900574 6.84532
head 2.81584 -0.283168 2.8077
rclavicle -1.98785e-015 5.56597e-015
rhumerus -39.3066 -36.2209 -68.3426
rradius 16.8668
rwrist 21.4726
rhand -15.4535 -55.5859
rfingers 7.12502
rthumb 10.7274 -85.292
lclavicle -1.98785e-015 5.56597e-015
lhumerus -29.5047 1.63844 84.9905
lradius 16.2918
lwrist -8.4178
lhand -25.2011 -15.2517
lfingers 7.12502
lthumb 1.31731 14.7239
rfemur -25.6977 10.9246 14.2964
rtibia 9.80229
rfoot -18.925 -6.20534
rtoes -36.6119
lfemur -25.7977 -13.0938 -14.2736
ltibia 12.5472
lfoot -10.2003 7.16196
ltoes -39.3495
283
root 10.1551 16.3619 17.8274 180.71 86.8742 154.765
lowerback -27.7642 -0.960014 -4.62304
upperback -3.95876 0.699489 -1.27947
thorax 10.9363 0.343424 1.50672
lowerneck 0.251079 -0.467802 -3.18319
upperneck 8.71676 -0.898564 6.82139
head 2.82096 -0.279721 2.78394
rclavicle 1.45113e-014 -1.23246e-014
rhumerus -39.339 -36.6359 -68.1266
rradius 16.8131
rwrist 21.9382
rhand -15.294 -55.6583
rfingers 7.12502
rthumb 10.8812 -85.3564
lclavicle 1.45113e-014 -1.23246e-014
lhumerus -29.4094 0.953676 85.185
lradius 16.5846
lwrist -7.88196
lhand -25.37 -14.8107
lfingers 7.12502
lthumb 1.15426 15.1659
rfemur -25.7441 10.788 14.2445
rtibia 9.48636
rfoot -18.8736 -5.92805
rtoes -35.674
lfemur -25.7614 -12.3547 -14.3955
ltibia 12.0414
lfoot -9.90095 6.47306
ltoes -39.9485
